<svg xmlns="http://www.w3.org/2000/svg" xmlns:xlink="http://www.w3.org/1999/xlink" width="780.8pt" height="400.02pt" viewBox="0 0 780.8 400.02" version="1.1">
<defs>
<clipPath id="clip1">
  <path d="M 0 0 L 780.800781 0 L 780.800781 400.019531 L 0 400.019531 Z M 0 0 " data-index="0" style="visibility: visible;"></path>
</clipPath>
</defs>
<g id="surface1">
<g clip-path="url(#clip1)" clip-rule="nonzero">
<path style="fill-rule: nonzero; fill: rgb(250, 250, 250); fill-opacity: 1; visibility: visible; opacity: 1;" d="M 0 400.019531 L 780.800781 400.019531 L 780.800781 0 L 0 0 Z M 0 400.019531 " data-index="1"></path>
</g>
<path style=" stroke:none;fill-rule:nonzero;fill:rgb(92.498779%,12.89978%,14.898682%);fill-opacity:1;" d="M 235.488281 246.457031 L 243.171875 246.457031 L 243.171875 195.054688 L 235.488281 195.054688 Z M 235.488281 246.457031 " data-index="2"></path>
<path style=" stroke:none;fill-rule:nonzero;fill:rgb(92.498779%,12.89978%,14.898682%);fill-opacity:1;" d="M 271.15625 246.460938 L 271.15625 202.746094 L 248.566406 202.746094 L 248.566406 195.054688 L 301.503906 195.054688 L 301.503906 202.746094 L 278.84375 202.746094 L 278.84375 246.460938 " data-index="3"></path>
<path style=" stroke:none;fill-rule:nonzero;fill:rgb(92.498779%,12.89978%,14.898682%);fill-opacity:1;" d="M 357.402344 217.199219 C 359.335938 217.199219 361.144531 217.578125 362.832031 218.335938 C 364.519531 219.097656 365.988281 220.140625 367.25 221.46875 C 368.507813 222.800781 369.496094 224.351563 370.214844 226.132813 C 370.933594 227.914063 371.296875 229.824219 371.296875 231.863281 C 371.296875 233.855469 370.933594 235.742188 370.214844 237.523438 C 369.496094 239.304688 368.507813 240.859375 367.25 242.1875 C 365.988281 243.515625 364.519531 244.5625 362.832031 245.320313 C 361.144531 246.078125 359.335938 246.460938 357.402344 246.460938 L 321.933594 246.460938 L 321.933594 238.769531 L 357.402344 238.769531 C 358.300781 238.769531 359.15625 238.59375 359.96875 238.234375 C 360.777344 237.878906 361.484375 237.382813 362.089844 236.742188 C 362.695313 236.097656 363.171875 235.363281 363.507813 234.535156 C 363.84375 233.703125 364.011719 232.8125 364.011719 231.863281 C 364.011719 229.917969 363.371094 228.269531 362.089844 226.914063 C 360.808594 225.5625 359.246094 224.886719 357.402344 224.886719 L 332.519531 224.886719 C 330.542969 224.886719 328.710938 224.507813 327.023438 223.746094 C 325.339844 222.988281 323.84375 221.921875 322.539063 220.542969 C 321.238281 219.167969 320.214844 217.578125 319.472656 215.773438 C 318.730469 213.96875 318.359375 212.050781 318.359375 210.007813 C 318.359375 207.917969 318.730469 205.972656 319.472656 204.167969 C 320.214844 202.367188 321.238281 200.777344 322.539063 199.398438 C 323.84375 198.070313 325.339844 197.011719 327.023438 196.230469 C 328.710938 195.445313 330.542969 195.054688 332.519531 195.054688 L 367.722656 195.054688 L 367.722656 202.746094 L 332.589844 202.746094 C 330.742188 202.886719 329.21875 203.648438 328.003906 205.023438 C 327.417969 205.6875 326.957031 206.4375 326.621094 207.265625 C 326.28125 208.097656 326.113281 209.011719 326.113281 210.007813 C 326.113281 210.957031 326.28125 211.847656 326.621094 212.675781 C 326.957031 213.507813 327.417969 214.257813 328.003906 214.921875 C 329.171875 216.296875 330.699219 217.054688 332.589844 217.199219 " data-index="4"></path>
<path style="fill-rule: nonzero; fill: rgb(236, 33, 38); fill-opacity: 1; opacity: 1;" d="M 421.9375 210.078125 C 421.9375 209.082031 421.746094 208.132813 421.363281 207.230469 C 420.980469 206.328125 420.476563 205.546875 419.847656 204.882813 C 419.21875 204.214844 418.488281 203.695313 417.65625 203.3125 C 416.824219 202.933594 415.9375 202.746094 414.992188 202.746094 L 391.324219 202.746094 C 390.378906 202.746094 389.492188 202.933594 388.660156 203.3125 C 387.828125 203.695313 387.097656 204.214844 386.46875 204.882813 C 385.117188 206.304688 384.445313 208.039063 384.445313 210.078125 L 384.445313 231.4375 C 384.445313 233.476563 385.117188 235.210938 386.46875 236.632813 C 387.097656 237.300781 387.828125 237.820313 388.660156 238.199219 C 389.492188 238.582031 390.378906 238.769531 391.324219 238.769531 L 414.992188 238.769531 C 415.9375 238.769531 416.824219 238.582031 417.65625 238.199219 C 418.488281 237.820313 419.21875 237.300781 419.847656 236.632813 C 420.476563 235.96875 420.980469 235.199219 421.363281 234.320313 C 421.746094 233.441406 421.9375 232.480469 421.9375 231.4375 Z M 425.445313 199.472656 C 426.746094 200.847656 427.769531 202.425781 428.511719 204.203125 C 429.253906 205.984375 429.621094 207.917969 429.621094 210.007813 L 429.621094 231.507813 C 429.621094 233.597656 429.253906 235.542969 428.511719 237.347656 C 427.769531 239.148438 426.746094 240.714844 425.445313 242.046875 C 424.183594 243.421875 422.703125 244.5 420.992188 245.285156 C 419.285156 246.066406 417.441406 246.460938 415.464844 246.460938 L 390.851563 246.460938 C 388.871094 246.460938 387.039063 246.066406 385.355469 245.285156 C 383.667969 244.5 382.171875 243.421875 380.871094 242.046875 C 379.566406 240.714844 378.542969 239.148438 377.804688 237.347656 C 377.0625 235.542969 376.6875 233.597656 376.6875 231.507813 L 376.6875 210.007813 C 376.6875 207.917969 377.0625 205.984375 377.804688 204.203125 C 378.542969 202.425781 379.566406 200.847656 380.871094 199.472656 C 382.171875 198.09375 383.667969 197.015625 385.355469 196.230469 C 387.039063 195.445313 388.871094 195.054688 390.851563 195.054688 L 415.464844 195.054688 C 417.441406 195.054688 419.285156 195.445313 420.992188 196.230469 C 422.703125 197.015625 424.183594 198.09375 425.445313 199.472656 " data-index="5"></path>
<path style="fill-rule: nonzero; fill: rgb(236, 33, 38); fill-opacity: 1; opacity: 1;" d="M 449.652344 238.769531 L 470.691406 238.769531 L 470.691406 246.457031 L 449.179688 246.457031 C 447.199219 246.457031 445.355469 246.066406 443.648438 245.285156 C 441.941406 244.5 440.4375 243.445313 439.132813 242.117188 C 437.828125 240.738281 436.816406 239.148438 436.097656 237.34375 C 435.378906 235.542969 435.019531 233.597656 435.019531 231.507813 L 435.019531 195.054688 L 442.707031 195.054688 L 442.707031 231.4375 C 442.707031 232.480469 442.882813 233.441406 443.246094 234.320313 C 443.605469 235.199219 444.097656 235.96875 444.730469 236.632813 C 445.355469 237.296875 446.089844 237.820313 446.921875 238.199219 C 447.753906 238.582031 448.664063 238.769531 449.652344 238.769531 " data-index="6"></path>
<path style=" stroke:none;fill-rule:nonzero;fill:rgb(92.498779%,12.89978%,14.898682%);fill-opacity:1;" d="M 512.363281 246.460938 L 490.246094 246.460938 C 488.265625 246.460938 486.433594 246.066406 484.75 245.285156 C 483.0625 244.5 481.570313 243.421875 480.265625 242.046875 C 478.960938 240.714844 477.9375 239.148438 477.195313 237.34375 C 476.457031 235.542969 476.085938 233.597656 476.085938 231.507813 L 476.085938 195.054688 L 483.773438 195.054688 L 483.773438 231.4375 C 483.816406 233.523438 484.511719 235.257813 485.863281 236.632813 C 486.492188 237.300781 487.222656 237.820313 488.054688 238.199219 C 488.886719 238.582031 489.773438 238.769531 490.71875 238.769531 L 511.824219 238.769531 C 512.8125 238.769531 513.722656 238.582031 514.554688 238.199219 C 515.386719 237.820313 516.117188 237.300781 516.746094 236.632813 C 518.09375 235.210938 518.769531 233.480469 518.769531 231.4375 L 518.769531 195.054688 L 526.457031 195.054688 L 526.457031 231.507813 C 526.457031 233.597656 526.097656 235.542969 525.378906 237.34375 C 524.660156 239.148438 523.648438 240.714844 522.34375 242.046875 C 521.039063 243.421875 519.535156 244.5 517.824219 245.285156 C 516.117188 246.066406 514.296875 246.460938 512.363281 246.460938 " data-index="7"></path>
<path style="fill-rule: nonzero; fill: rgb(236, 33, 38); fill-opacity: 1; opacity: 1;" d="M 554.441406 246.460938 L 554.441406 202.746094 L 531.851563 202.746094 L 531.851563 195.054688 L 584.785156 195.054688 L 584.785156 202.746094 L 562.128906 202.746094 L 562.128906 246.460938 " data-index="8"></path>
<path style="stroke: none; fill-rule: nonzero; fill: rgb(236, 33, 38); fill-opacity: 1; visibility: visible;" d="M 591.980469 246.457031 L 599.667969 246.457031 L 599.667969 195.054688 L 591.980469 195.054688 Z M 591.980469 246.457031 " data-index="9"></path>
<path style=" stroke:none;fill-rule:nonzero;fill:rgb(92.498779%,12.89978%,14.898682%);fill-opacity:1;" d="M 650.308594 210.078125 C 650.308594 209.082031 650.117188 208.132813 649.738281 207.230469 C 649.355469 206.328125 648.847656 205.546875 648.21875 204.882813 C 647.589844 204.214844 646.859375 203.695313 646.027344 203.3125 C 645.195313 202.933594 644.308594 202.746094 643.363281 202.746094 L 619.695313 202.746094 C 618.75 202.746094 617.863281 202.933594 617.03125 203.3125 C 616.199219 203.695313 615.46875 204.214844 614.839844 204.882813 C 613.492188 206.304688 612.816406 208.039063 612.816406 210.078125 L 612.816406 231.4375 C 612.816406 233.476563 613.492188 235.210938 614.839844 236.632813 C 615.46875 237.300781 616.199219 237.820313 617.03125 238.199219 C 617.863281 238.582031 618.75 238.769531 619.695313 238.769531 L 643.363281 238.769531 C 644.308594 238.769531 645.195313 238.582031 646.027344 238.199219 C 646.859375 237.820313 647.589844 237.300781 648.21875 236.632813 C 648.847656 235.96875 649.355469 235.199219 649.738281 234.320313 C 650.117188 233.441406 650.308594 232.480469 650.308594 231.4375 Z M 653.816406 199.472656 C 655.121094 200.847656 656.144531 202.425781 656.886719 204.203125 C 657.625 205.984375 657.996094 207.917969 657.996094 210.007813 L 657.996094 231.507813 C 657.996094 233.597656 657.625 235.542969 656.886719 237.347656 C 656.144531 239.148438 655.121094 240.714844 653.816406 242.046875 C 652.558594 243.421875 651.074219 244.5 649.367188 245.285156 C 647.65625 246.066406 645.8125 246.460938 643.835938 246.460938 L 619.222656 246.460938 C 617.246094 246.460938 615.414063 246.066406 613.726563 245.285156 C 612.039063 244.5 610.546875 243.421875 609.242188 242.046875 C 607.9375 240.714844 606.914063 239.148438 606.175781 237.347656 C 605.433594 235.542969 605.0625 233.597656 605.0625 231.507813 L 605.0625 210.007813 C 605.0625 207.917969 605.433594 205.984375 606.175781 204.203125 C 606.914063 202.425781 607.9375 200.847656 609.242188 199.472656 C 610.546875 198.09375 612.039063 197.015625 613.726563 196.230469 C 615.414063 195.445313 617.246094 195.054688 619.222656 195.054688 L 643.835938 195.054688 C 645.8125 195.054688 647.65625 195.445313 649.367188 196.230469 C 651.074219 197.015625 652.558594 198.09375 653.816406 199.472656 " data-index="10"></path>
<path style="stroke: none; fill-rule: nonzero; fill: rgb(236, 33, 38); fill-opacity: 1; visibility: visible;" d="M 708.570313 195.054688 L 716.324219 195.054688 L 716.324219 234.425781 C 716.324219 236.089844 716.046875 237.640625 715.484375 239.089844 C 714.921875 240.539063 714.121094 241.808594 713.089844 242.898438 C 712.101563 243.992188 710.921875 244.855469 709.550781 245.496094 C 708.175781 246.136719 706.707031 246.457031 705.132813 246.457031 C 704.367188 246.457031 703.648438 246.398438 702.972656 246.28125 C 702.300781 246.160156 701.648438 245.984375 701.019531 245.746094 C 699.757813 245.320313 698.703125 244.75 697.847656 244.035156 C 696.90625 243.277344 696.128906 242.472656 695.523438 241.617188 C 694.914063 240.761719 694.386719 239.933594 693.9375 239.125 C 693.625 238.554688 693.351563 238.023438 693.128906 237.523438 C 692.902344 237.023438 692.699219 236.585938 692.523438 236.207031 C 692.296875 235.777344 691.972656 235.113281 691.546875 234.214844 C 691.117188 233.3125 690.609375 232.242188 690.027344 231.007813 C 689.441406 229.777344 688.824219 228.421875 688.171875 226.949219 C 687.519531 225.480469 686.835938 223.984375 686.117188 222.464844 C 685.394531 220.949219 684.6875 219.441406 683.992188 217.945313 C 683.296875 216.449219 682.644531 215.050781 682.035156 213.742188 C 681.429688 212.441406 680.898438 211.289063 680.453125 210.289063 C 680.003906 209.292969 679.640625 208.511719 679.371094 207.941406 C 679.148438 207.421875 678.910156 206.921875 678.664063 206.445313 C 678.417969 205.972656 678.179688 205.546875 677.957031 205.164063 C 677.730469 204.785156 677.371094 204.300781 676.878906 203.703125 C 676.382813 203.113281 675.753906 202.816406 674.988281 202.816406 C 674.449219 202.816406 673.910156 202.933594 673.371094 203.171875 C 672.875 203.410156 672.472656 203.695313 672.15625 204.027344 C 671.484375 204.832031 671.144531 205.855469 671.144531 207.085938 L 671.144531 246.457031 L 663.390625 246.457031 L 663.390625 207.085938 C 663.390625 203.71875 664.402344 200.894531 666.425781 198.617188 C 667.414063 197.523438 668.59375 196.65625 669.964844 196.015625 C 671.335938 195.375 672.855469 195.054688 674.515625 195.054688 C 676.179688 195.054688 677.664063 195.292969 678.96875 195.769531 C 680.359375 196.242188 681.597656 197.097656 682.675781 198.328125 C 683.351563 199.042969 684.046875 199.96875 684.765625 201.105469 C 685.21875 201.820313 685.664063 202.601563 686.117188 203.457031 C 686.566406 204.3125 687.035156 205.261719 687.53125 206.304688 C 688.117188 207.585938 688.949219 209.367188 690.027344 211.644531 C 691.105469 213.921875 692.230469 216.308594 693.398438 218.800781 C 694.566406 221.289063 695.679688 223.6875 696.738281 225.988281 C 697.792969 228.292969 698.636719 230.082031 699.265625 231.363281 C 699.488281 231.746094 699.648438 232.066406 699.738281 232.324219 C 699.828125 232.585938 699.917969 232.765625 700.007813 232.859375 C 700.367188 233.527344 700.671875 234.117188 700.917969 234.640625 C 701.164063 235.160156 701.398438 235.636719 701.625 236.0625 C 701.761719 236.253906 701.917969 236.503906 702.097656 236.8125 C 702.277344 237.121094 702.492188 237.414063 702.738281 237.699219 C 702.984375 237.984375 703.277344 238.222656 703.613281 238.414063 C 703.953125 238.605469 704.324219 238.699219 704.726563 238.699219 C 705.3125 238.699219 705.875 238.578125 706.414063 238.34375 C 706.90625 238.105469 707.289063 237.820313 707.558594 237.488281 C 708.234375 236.679688 708.570313 235.660156 708.570313 234.425781 " data-index="11"></path>
<path style="fill-rule: nonzero; fill: rgb(26, 24, 27); fill-opacity: 1; visibility: visible; opacity: 1;" d="M 247.578125 180.492188 L 247.578125 162.289063 L 239.398438 162.289063 L 239.398438 159.085938 L 258.5625 159.085938 L 258.5625 162.289063 L 250.359375 162.289063 L 250.359375 180.492188 " data-index="12"></path>
<path style="fill-rule: nonzero; fill: rgb(26, 24, 27); fill-opacity: 1; visibility: visible; opacity: 1;" d="M 274.113281 165.195313 C 274.828125 165.195313 275.496094 165.355469 276.117188 165.683594 C 276.734375 166.007813 277.28125 166.460938 277.753906 167.03125 C 278.222656 167.605469 278.589844 168.261719 278.851563 169.003906 C 279.109375 169.746094 279.242188 170.550781 279.242188 171.421875 L 279.242188 180.492188 L 276.457031 180.492188 L 276.457031 171.449219 C 276.457031 171.035156 276.394531 170.640625 276.261719 170.265625 C 276.132813 169.890625 275.953125 169.5625 275.726563 169.285156 C 275.496094 169.007813 275.234375 168.792969 274.933594 168.632813 C 274.632813 168.476563 274.300781 168.394531 273.941406 168.394531 L 273.96875 168.394531 L 267.523438 168.394531 C 267.179688 168.394531 266.855469 168.476563 266.546875 168.632813 C 266.238281 168.792969 265.96875 169.007813 265.742188 169.285156 C 265.511719 169.5625 265.335938 169.890625 265.203125 170.265625 C 265.074219 170.640625 265.007813 171.035156 265.007813 171.449219 L 265.007813 180.492188 L 262.226563 180.492188 L 262.226563 159.085938 L 265.007813 159.085938 L 265.007813 165.878906 C 265.367188 165.660156 265.742188 165.492188 266.132813 165.371094 C 266.523438 165.253906 266.929688 165.195313 267.351563 165.195313 " data-index="13"></path>
<path style="fill-rule: nonzero; fill: rgb(26, 24, 27); fill-opacity: 1; visibility: visible; opacity: 1;" d="M 284.710938 169.316406 C 284.480469 169.59375 284.300781 169.914063 284.171875 170.277344 C 284.039063 170.644531 283.976563 171.035156 283.976563 171.449219 L 295.425781 171.449219 C 295.425781 171.035156 295.359375 170.644531 295.230469 170.277344 C 295.101563 169.914063 294.921875 169.59375 294.691406 169.316406 C 294.203125 168.722656 293.609375 168.425781 292.910156 168.425781 L 286.492188 168.425781 C 285.789063 168.425781 285.195313 168.722656 284.710938 169.316406 M 284 174.652344 C 284.03125 174.988281 284.113281 175.304688 284.246094 175.601563 C 284.375 175.898438 284.527344 176.164063 284.710938 176.402344 C 285.195313 176.996094 285.789063 177.292969 286.492188 177.292969 L 296.671875 177.292969 L 296.671875 180.492188 L 286.320313 180.492188 C 285.605469 180.492188 284.9375 180.335938 284.316406 180.019531 C 283.699219 179.703125 283.164063 179.257813 282.707031 178.683594 C 282.234375 178.113281 281.863281 177.449219 281.597656 176.699219 C 281.328125 175.949219 281.191406 175.136719 281.191406 174.265625 L 281.191406 171.421875 C 281.191406 170.550781 281.328125 169.746094 281.597656 169.003906 C 281.863281 168.261719 282.234375 167.605469 282.707031 167.03125 C 283.164063 166.460938 283.699219 166.015625 284.316406 165.699219 C 284.9375 165.382813 285.605469 165.222656 286.320313 165.222656 L 293.082031 165.222656 C 293.796875 165.222656 294.464844 165.382813 295.085938 165.699219 C 295.703125 166.015625 296.246094 166.460938 296.71875 167.03125 C 297.191406 167.605469 297.558594 168.261719 297.816406 169.003906 C 298.078125 169.746094 298.210938 170.550781 298.210938 171.421875 L 298.210938 174.652344 " data-index="14"></path>
<path style="fill: none; stroke-width: 10; stroke-linecap: butt; stroke-linejoin: miter; stroke: rgb(236, 33, 38); stroke-opacity: 1; stroke-miterlimit: 10; visibility: visible;" d="M 440.195313 2261.60625 L 603.710938 2261.60625 L 674.140625 2304.535937 L 846.71875 2304.535937 " transform="matrix(0.1,0,0,-0.1,0,400.02)" data-index="15"></path>
<path style=" stroke:none;fill-rule:nonzero;fill:rgb(13.299561%,12.199402%,12.199402%);fill-opacity:1;" d="M 47.191406 173.859375 C 47.191406 175.609375 45.773438 177.03125 44.019531 177.03125 C 42.269531 177.03125 40.851563 175.609375 40.851563 173.859375 C 40.851563 172.109375 42.269531 170.691406 44.019531 170.691406 C 45.773438 170.691406 47.191406 172.109375 47.191406 173.859375 " data-index="16"></path>
<path style="fill: none; stroke-width: 10; stroke-linecap: butt; stroke-linejoin: miter; stroke: rgb(236, 33, 38); stroke-opacity: 1; stroke-miterlimit: 10; visibility: visible;" d="M 471.914063 2261.60625 C 471.914063 2244.10625 457.734375 2229.8875 440.195313 2229.8875 C 422.695313 2229.8875 408.515625 2244.10625 408.515625 2261.60625 C 408.515625 2279.10625 422.695313 2293.285937 440.195313 2293.285937 C 457.734375 2293.285937 471.914063 2279.10625 471.914063 2261.60625 Z M 471.914063 2261.60625 " transform="matrix(0.1,0,0,-0.1,0,400.02)" data-index="17"></path>
<path style="fill: none; stroke-width: 10; stroke-linecap: butt; stroke-linejoin: miter; stroke: rgb(236, 33, 38); stroke-opacity: 1; stroke-miterlimit: 10; visibility: visible;" d="M 542.578125 2166.684375 L 769.609375 2166.684375 " transform="matrix(0.1,0,0,-0.1,0,400.02)" data-index="18"></path>
<path style=" stroke:none;fill-rule:nonzero;fill:rgb(13.299561%,12.199402%,12.199402%);fill-opacity:1;" d="M 57.429688 183.351563 C 57.429688 185.101563 56.011719 186.519531 54.257813 186.519531 C 52.507813 186.519531 51.089844 185.101563 51.089844 183.351563 C 51.089844 181.601563 52.507813 180.179688 54.257813 180.179688 C 56.011719 180.179688 57.429688 181.601563 57.429688 183.351563 " data-index="19"></path>
<path style="fill: none; stroke-width: 10; stroke-linecap: butt; stroke-linejoin: miter; stroke: rgb(236, 33, 38); stroke-opacity: 1; stroke-miterlimit: 10; visibility: visible;" d="M 574.296875 2166.684375 C 574.296875 2149.184375 560.117188 2135.004687 542.578125 2135.004687 C 525.078125 2135.004687 510.898438 2149.184375 510.898438 2166.684375 C 510.898438 2184.184375 525.078125 2198.403125 542.578125 2198.403125 C 560.117188 2198.403125 574.296875 2184.184375 574.296875 2166.684375 Z M 574.296875 2166.684375 " transform="matrix(0.1,0,0,-0.1,0,400.02)" data-index="20"></path>
<path style="fill: none; stroke-width: 10; stroke-linecap: butt; stroke-linejoin: miter; stroke: rgb(236, 33, 38); stroke-opacity: 1; stroke-miterlimit: 10; visibility: visible;" d="M 440.195313 1564.848437 L 603.710938 1564.848437 L 674.140625 1521.91875 L 846.71875 1521.91875 " transform="matrix(0.1,0,0,-0.1,0,400.02)" data-index="21"></path>
<path style=" stroke:none;fill-rule:nonzero;fill:rgb(13.299561%,12.199402%,12.199402%);fill-opacity:1;" d="M 47.191406 243.535156 C 47.191406 241.785156 45.773438 240.367188 44.019531 240.367188 C 42.269531 240.367188 40.851563 241.785156 40.851563 243.535156 C 40.851563 245.285156 42.269531 246.707031 44.019531 246.707031 C 45.773438 246.707031 47.191406 245.285156 47.191406 243.535156 " data-index="22"></path>
<path style="fill: none; stroke-width: 10; stroke-linecap: butt; stroke-linejoin: miter; stroke: rgb(236, 33, 38); stroke-opacity: 1; stroke-miterlimit: 10; visibility: visible;" d="M 471.914063 1564.848437 C 471.914063 1582.348437 457.734375 1596.528125 440.195313 1596.528125 C 422.695313 1596.528125 408.515625 1582.348437 408.515625 1564.848437 C 408.515625 1547.348437 422.695313 1533.129687 440.195313 1533.129687 C 457.734375 1533.129687 471.914063 1547.348437 471.914063 1564.848437 Z M 471.914063 1564.848437 " transform="matrix(0.1,0,0,-0.1,0,400.02)" data-index="23"></path>
<path style="fill: none; stroke-width: 10; stroke-linecap: butt; stroke-linejoin: miter; stroke: rgb(236, 33, 38); stroke-opacity: 1; stroke-miterlimit: 10; visibility: visible;" d="M 542.578125 1659.73125 L 769.609375 1659.73125 " transform="matrix(0.1,0,0,-0.1,0,400.02)" data-index="24"></path>
<path style=" stroke:none;fill-rule:nonzero;fill:rgb(13.299561%,12.199402%,12.199402%);fill-opacity:1;" d="M 57.429688 234.046875 C 57.429688 232.292969 56.011719 230.875 54.257813 230.875 C 52.507813 230.875 51.089844 232.292969 51.089844 234.046875 C 51.089844 235.796875 52.507813 237.214844 54.257813 237.214844 C 56.011719 237.214844 57.429688 235.796875 57.429688 234.046875 " data-index="25"></path>
<path style="fill: none; stroke-width: 10; stroke-linecap: butt; stroke-linejoin: miter; stroke: rgb(236, 33, 38); stroke-opacity: 1; stroke-miterlimit: 10; visibility: visible;" d="M 574.296875 1659.73125 C 574.296875 1677.270312 560.117188 1691.45 542.578125 1691.45 C 525.078125 1691.45 510.898438 1677.270312 510.898438 1659.73125 C 510.898438 1642.23125 525.078125 1628.051562 542.578125 1628.051562 C 560.117188 1628.051562 574.296875 1642.23125 574.296875 1659.73125 Z M 574.296875 1659.73125 " transform="matrix(0.1,0,0,-0.1,0,400.02)" data-index="26"></path>
<path style="fill: none; stroke-width: 10; stroke-linecap: butt; stroke-linejoin: miter; stroke: rgb(236, 33, 38); stroke-opacity: 1; stroke-miterlimit: 10; visibility: visible;" d="M 487.929688 2040.082812 L 744.6875 2040.082812 " transform="matrix(0.1,0,0,-0.1,0,400.02)" data-index="27"></path>
<path style=" stroke:none;fill-rule:nonzero;fill:rgb(13.299561%,12.199402%,12.199402%);fill-opacity:1;" d="M 51.960938 196.011719 C 51.960938 197.761719 50.542969 199.179688 48.792969 199.179688 C 47.042969 199.179688 45.621094 197.761719 45.621094 196.011719 C 45.621094 194.261719 47.042969 192.839844 48.792969 192.839844 C 50.542969 192.839844 51.960938 194.261719 51.960938 196.011719 " data-index="28"></path>
<path style="fill: none; stroke-width: 10; stroke-linecap: butt; stroke-linejoin: miter; stroke: rgb(236, 33, 38); stroke-opacity: 1; stroke-miterlimit: 10; visibility: visible;" d="M 519.609375 2040.082812 C 519.609375 2022.582812 505.429688 2008.403125 487.929688 2008.403125 C 470.429688 2008.403125 456.210938 2022.582812 456.210938 2040.082812 C 456.210938 2057.582812 470.429688 2071.801562 487.929688 2071.801562 C 505.429688 2071.801562 519.609375 2057.582812 519.609375 2040.082812 Z M 519.609375 2040.082812 " transform="matrix(0.1,0,0,-0.1,0,400.02)" data-index="29"></path>
<path style="fill: none; stroke-width: 10; stroke-linecap: butt; stroke-linejoin: miter; stroke: rgb(236, 33, 38); stroke-opacity: 1; stroke-miterlimit: 10; visibility: visible;" d="M 487.929688 1786.879687 L 729.296875 1786.879687 " transform="matrix(0.1,0,0,-0.1,0,400.02)" data-index="30"></path>
<path style=" stroke:none;fill-rule:nonzero;fill:rgb(13.299561%,12.199402%,12.199402%);fill-opacity:1;" d="M 51.960938 221.332031 C 51.960938 223.085938 50.542969 224.503906 48.792969 224.503906 C 47.042969 224.503906 45.621094 223.085938 45.621094 221.332031 C 45.621094 219.582031 47.042969 218.164063 48.792969 218.164063 C 50.542969 218.164063 51.960938 219.582031 51.960938 221.332031 " data-index="31"></path>
<path style="fill: none; stroke-width: 10; stroke-linecap: butt; stroke-linejoin: miter; stroke: rgb(236, 33, 38); stroke-opacity: 1; stroke-miterlimit: 10; visibility: visible;" d="M 519.609375 1786.879687 C 519.609375 1769.340625 505.429688 1755.160937 487.929688 1755.160937 C 470.429688 1755.160937 456.210938 1769.340625 456.210938 1786.879687 C 456.210938 1804.379687 470.429688 1818.559375 487.929688 1818.559375 C 505.429688 1818.559375 519.609375 1804.379687 519.609375 1786.879687 Z M 519.609375 1786.879687 " transform="matrix(0.1,0,0,-0.1,0,400.02)" data-index="32"></path>
<path style="fill-rule: nonzero; fill: rgb(34, 31, 31); fill-opacity: 1; stroke-width: 10; stroke-linecap: butt; stroke-linejoin: miter; stroke: rgb(236, 33, 38); stroke-opacity: 1; stroke-miterlimit: 10; visibility: visible;" d="M 457.265625 1913.48125 L 558.867188 1913.48125 L 644.140625 1881.7625 L 718.4375 1881.7625 " transform="matrix(0.1,0,0,-0.1,0,400.02)" data-index="33"></path>
<path style=" stroke:none;fill-rule:nonzero;fill:rgb(13.299561%,12.199402%,12.199402%);fill-opacity:1;" d="M 48.894531 208.671875 C 48.894531 210.421875 47.476563 211.84375 45.726563 211.84375 C 43.976563 211.84375 42.554688 210.421875 42.554688 208.671875 C 42.554688 206.921875 43.976563 205.5 45.726563 205.5 C 47.476563 205.5 48.894531 206.921875 48.894531 208.671875 " data-index="34"></path>
<path style="fill: none; stroke-width: 10; stroke-linecap: butt; stroke-linejoin: miter; stroke: rgb(236, 33, 38); stroke-opacity: 1; stroke-miterlimit: 10; visibility: visible;" d="M 488.945313 1913.48125 C 488.945313 1895.98125 474.765625 1881.7625 457.265625 1881.7625 C 439.765625 1881.7625 425.546875 1895.98125 425.546875 1913.48125 C 425.546875 1930.98125 439.765625 1945.2 457.265625 1945.2 C 474.765625 1945.2 488.945313 1930.98125 488.945313 1913.48125 Z M 488.945313 1913.48125 " transform="matrix(0.1,0,0,-0.1,0,400.02)" data-index="35"></path>
<path style="fill: none; stroke-width: 29.75; stroke-linecap: butt; stroke-linejoin: miter; stroke: rgb(236, 33, 38); stroke-opacity: 1; stroke-miterlimit: 10; visibility: visible;" d="M 2070.234375 1913.207812 C 2070.234375 1539.926562 1767.617188 1237.309375 1394.335938 1237.309375 C 1021.054688 1237.309375 718.4375 1539.926562 718.4375 1913.207812 C 718.4375 2286.528125 1021.054688 2589.10625 1394.335938 2589.10625 C 1767.617188 2589.10625 2070.234375 2286.528125 2070.234375 1913.207812 Z M 2070.234375 1913.207812 " transform="matrix(0.1,0,0,-0.1,0,400.02)" data-index="36"></path>
<path style=" stroke:none;fill-rule:nonzero;fill:rgb(0.39978%,0.799561%,0.799561%);fill-opacity:1;" d="M 200.59375 208.699219 C 200.59375 242.476563 173.210938 269.859375 139.433594 269.859375 C 105.65625 269.859375 78.273438 242.476563 78.273438 208.699219 C 78.273438 174.921875 105.65625 147.539063 139.433594 147.539063 C 173.210938 147.539063 200.59375 174.921875 200.59375 208.699219 " data-index="37"></path>
<path style=" stroke:none;fill-rule:nonzero;fill:rgb(92.498779%,12.89978%,14.898682%);fill-opacity:1;" d="M 142.257813 205.691406 C 142.257813 208.210938 140.226563 210.453125 137.566406 210.453125 C 134.972656 210.453125 132.871094 208.351563 132.871094 205.691406 C 132.871094 203.027344 134.972656 200.996094 137.566406 200.996094 C 140.15625 200.996094 142.257813 203.097656 142.257813 205.691406 M 133.78125 240.988281 C 133.363281 242.320313 133.222656 243.089844 133.222656 243.371094 C 133.222656 244.210938 133.851563 244.84375 134.621094 244.84375 C 136.164063 244.84375 138.40625 242.671875 140.4375 238.328125 L 142.117188 239.238281 C 138.824219 246.242188 134.902344 249.746094 130.28125 249.746094 C 126.847656 249.746094 124.816406 247.925781 124.816406 244.632813 C 124.816406 243.652344 125.167969 241.128906 126.21875 238.046875 L 129.789063 227.753906 C 130.488281 225.792969 130.699219 224.179688 130.699219 223.621094 C 130.699219 222.570313 130.140625 221.941406 129.441406 221.941406 C 127.96875 221.941406 126.21875 224.109375 123.765625 228.523438 L 121.945313 227.683594 C 125.449219 220.609375 129.300781 217.105469 133.78125 217.105469 C 137.074219 217.105469 139.035156 219.066406 139.035156 222.5 C 139.035156 223.902344 138.613281 226.28125 137.566406 229.433594 " data-index="38"></path>
<path style=" stroke:none;fill-rule:nonzero;fill:rgb(100%,100%,100%);fill-opacity:1;" d="M 118.570313 249.683594 L 114.75 249.683594 L 114.75 197.867188 L 93.203125 197.867188 C 92.148438 197.867188 91.292969 197.011719 91.292969 195.957031 L 91.292969 184.695313 C 91.292969 183.640625 92.148438 182.78125 93.203125 182.78125 L 137.101563 182.78125 C 138.15625 182.78125 139.011719 183.640625 139.011719 184.695313 L 137.394531 195.957031 L 135.191406 186.605469 L 95.117188 186.605469 L 95.117188 194.046875 L 116.660156 194.046875 C 117.71875 194.046875 118.570313 194.902344 118.570313 195.957031 " data-index="39"></path>
<path style=" stroke:none;fill-rule:nonzero;fill:rgb(100%,100%,100%);fill-opacity:1;" d="M 189.785156 182.496094 C 188.316406 183.128906 186.839844 183.742188 185.378906 184.398438 C 177.5 187.953125 169.996094 192.144531 163.226563 197.5625 C 160.574219 199.6875 158.089844 201.992188 156.035156 204.714844 C 154.890625 206.230469 153.914063 207.839844 153.503906 209.726563 C 153.011719 211.96875 153.796875 213.808594 155.769531 214.960938 C 157.375 215.894531 159.265625 215.964844 161.097656 216.035156 C 163.394531 216.125 165.660156 215.789063 167.929688 215.484375 C 172.59375 214.855469 177.136719 214.4375 181.867188 214.664063 C 183.683594 214.75 185.484375 214.988281 187.171875 215.71875 C 187.683594 215.941406 188.191406 216.214844 188.640625 216.550781 C 190.136719 217.675781 190.59375 219.308594 189.972656 221.257813 C 189.398438 223.050781 188.308594 224.535156 187.085938 225.925781 C 184.382813 228.992188 181.179688 231.476563 177.824219 233.773438 C 171.726563 237.949219 165.214844 241.367188 158.472656 244.363281 C 154.007813 246.347656 149.464844 248.125 144.828125 249.660156 C 144.75 249.683594 144.667969 249.695313 144.566406 249.65625 C 145.304688 249.347656 146.046875 249.050781 146.78125 248.734375 C 153.945313 245.6875 160.808594 242.082031 167.203125 237.621094 C 170.796875 235.117188 174.210938 232.398438 177.128906 229.105469 C 178.691406 227.339844 180.125 225.476563 180.851563 223.191406 C 181.078125 222.480469 181.210938 221.707031 181.214844 220.964844 C 181.21875 219.308594 180.390625 218.082031 179.007813 217.226563 C 177.441406 216.257813 175.875 215.984375 174.0625 215.882813 C 171.84375 215.757813 169.496094 216.277344 167.300781 216.558594 C 163.042969 217.101563 158.769531 217.464844 154.460938 217.457031 C 152.511719 217.453125 150.566406 217.347656 148.683594 216.789063 C 147.976563 216.578125 147.269531 216.3125 146.625 215.960938 C 144.667969 214.894531 143.960938 213.128906 144.578125 210.984375 C 145.101563 209.1875 146.171875 207.707031 147.367188 206.3125 C 149.640625 203.667969 152.320313 201.480469 155.136719 199.449219 C 160.898438 195.285156 167.105469 191.890625 173.535156 188.886719 C 178.660156 186.488281 183.902344 184.382813 189.265625 182.574219 C 189.429688 182.519531 189.597656 182.46875 189.761719 182.417969 C 189.769531 182.441406 189.777344 182.46875 189.785156 182.496094 " data-index="40"></path>
</g>
</svg>